<svg  version="1.1" id="Layer_1" xmlns="http://www.w3.org/2000/svg" xmlns:xlink="http://www.w3.org/1999/xlink" 
viewBox="0 0 512 512" xml:space="preserve" fill="#B4CD93" >
<g>
	<g>
		<path  d="M493.481,441.191H478.23V173.208c0-9.804-8.715-18.519-18.519-18.519H323.54v-102.4
			c0-9.804-8.715-18.519-18.519-18.519h-153.6c-9.804,0-18.519,8.715-18.519,18.519v205.889H52.289
			c-9.804,0-18.519,8.715-18.519,18.519v164.494H18.519C8.715,441.191,0,449.906,0,459.711s8.715,18.519,18.519,18.519h33.77h99.132
			h154.689h153.6h33.77c9.804,0,18.519-8.715,18.519-18.519S503.285,441.191,493.481,441.191z M70.809,295.217h62.094v145.974
			H70.809V295.217z M247.285,441.191v-72.987c0-9.804-8.715-18.519-18.519-18.519c-9.804,0-18.519,8.715-18.519,18.519v72.987
			H169.94V276.698V70.809h116.562v370.383H247.285z M324.63,441.191V191.728h116.562v249.464H324.63z"/>
	</g>
</g>
</svg>